<svg xmlns="http://www.w3.org/2000/svg" viewBox="55.99981689453125 -438.00018310546875 386.0003662109375 386.0003662109375" width="100%" height="100%">
  <g id="glyph-uni2715" transform="scale(1, -1)">
    <path d="M442.00018310546875 70.99609375C442.00018310546875 75.84254455566406 440.15960693359375 80.68899536132812 436.47845458984375 84.3914794921875C375.1986999511719 146.0264892578125 321.4121398925781 200.04324340820312 275.83509826660156 245.75448608398438C299.8028106689453 269.7831573486328 323.4289245605469 293.44775390625 344.87962341308594 314.89845275878906C390.5849151611328 360.60374450683594 426.8258972167969 396.6422424316406 434.2854461669922 403.6356201171875C436.7887420654297 405.4863739013672 438.48248291015625 407.6634826660156 439.6274719238281 409.79820251464844C441.1394500732422 412.5246124267578 442.00018310546875 415.6630096435547 442.00018310546875 419.00390625C442.00018310546875 429.5016632080078 433.50177001953125 438.00018310546875 423.00390625 438.00018310546875C416.8644104003906 438.00018310546875 413.34716796875 435.4739532470703 411.8468475341797 434.3963623046875C411.77354431152344 434.3437194824219 411.67918395996094 434.2696990966797 411.56407165527344 434.17462158203125C410.6527404785156 433.486572265625 409.8054656982422 432.71826171875 409.03273010253906 431.8801574707031C394.27757263183594 418.0345916748047 327.03289794921875 350.91796875 248.98171997070312 272.67822265625C177.54022216796875 344.2826232910156 130.04701232910156 391.6804962158203 109.97772216796875 411.53697204589844C99.75080871582031 421.6554260253906 93.43426513671875 427.9049987792969 89.07258605957031 431.7649841308594C87.73492431640625 433.2398223876953 86.16845703125 434.50323486328125 84.42898559570312 435.4994201660156C80.78932189941406 435.4994201660156 78.74693298339844 438.00018310546875 74.99609375 438.00018310546875C64.49833679199219 438.00018310546875 55.99981689453125 429.50177001953125 55.99981689453125 419.00390625C55.99981689453125 416.36814880371094 56.535552978515625 413.8584289550781 57.504180908203125 411.5776062011719C58.42955017089844 409.3936004638672 59.78184509277344 407.3480987548828 61.561065673828125 405.5688781738281C64.24258422851562 402.8873596191406 64.15093994140625 404.16900634765625 222.16387939453125 245.7849884033203C166.94802856445312 190.39361572265625 108.82562255859375 131.96978759765625 61.52154541015625 84.3914794921875C57.84039306640625 80.68899536132812 55.99981689453125 75.84254455566406 55.99981689453125 70.99609375C55.99981689453125 60.49833679199219 64.49822998046875 51.99981689453125 74.99609375 51.99981689453125C79.85986328125 51.99981689453125 84.7236328125 53.85356140136719 88.43112182617188 57.561065673828125C88.45936584472656 57.589385986328125 166.726806640625 136.3105010986328 249.01617431640625 218.85897827148438C291.8190460205078 175.92274475097656 344.54493713378906 122.96180725097656 409.52935791015625 57.6007080078125C413.2763671875 53.85356140136719 418.14013671875 51.99981689453125 423.00390625 51.99981689453125C433.5016632080078 51.99981689453125 442.00018310546875 60.49822998046875 442.00018310546875 70.99609375Z" />
  </g>
</svg>