<svg xmlns="http://www.w3.org/2000/svg" viewBox="121.00372314453125 -560.0448913574219 508.99253845214844 560.0411682128906" width="100%" height="100%">
  <g id="glyph-u1F4DD" transform="scale(1, -1)">
    <path d="M433.0068359375 88.55859375C434.9404296875 88.55859375 436.45703125 88.5654296875 437.6806640625 88.580078125C459.3076171875 88.849609375 460.01953125 105.1806640625 460.01953125 107.330078125C460.01953125 107.759765625 459.99609375 108.0 459.99609375 108.0C459.99609375 118.498046875 451.498046875 126.99609375 441.0 126.99609375C440.904296875 126.99609375 438.41015625 126.57421875 431.47265625 126.57421875C429.4375 126.57421875 348.9638671875 126.99609375 228.0 126.99609375C217.501953125 126.99609375 209.00390625 118.498046875 209.00390625 108.0C209.00390625 97.501953125 217.501953125 89.00390625 228.0 89.00390625C356.7333984375 89.00390625 430.9560546875 88.55859375 433.0068359375 88.55859375ZM352.884765625 479.0C352.884765625 489.498046875 344.38671875 497.99609375 333.888671875 497.99609375L140.0 497.99627685546875C129.5022430419922 497.99627685546875 121.00372314453125 489.49786376953125 121.00372314453125 479.0V19.0C121.00372314453125 8.502243041992188 129.50213623046875 0.00372314453125 140.0 0.00372314453125H520.0C530.4977569580078 0.00372314453125 538.9962768554688 8.50213623046875 538.9962768554688 19.0L538.99609375 328.0C538.99609375 338.498046875 530.498046875 346.99609375 520.0 346.99609375C509.501953125 346.99609375 501.00390625 338.498046875 501.00390625 328.0L501.00372314453125 37.99627685546875H158.99627685546875V460.00372314453125L333.888671875 460.00390625C344.38671875 460.00390625 352.884765625 468.501953125 352.884765625 479.0ZM433.0068359375 188.55859375C434.9404296875 188.55859375 436.45703125 188.5654296875 437.6806640625 188.580078125C459.3076171875 188.849609375 460.01953125 205.1806640625 460.01953125 207.330078125C460.01953125 207.759765625 459.99609375 208.0 459.99609375 208.0C459.99609375 218.498046875 451.498046875 226.99609375 441.0 226.99609375C440.904296875 226.99609375 438.41015625 226.57421875 431.47265625 226.57421875C429.4375 226.57421875 348.9638671875 226.99609375 228.0 226.99609375C217.501953125 226.99609375 209.00390625 218.498046875 209.00390625 208.0C209.00390625 197.501953125 217.501953125 189.00390625 228.0 189.00390625C356.7333984375 189.00390625 430.9560546875 188.55859375 433.0068359375 188.55859375ZM611.2843475341797 560.0448760986328C604.3056335449219 560.0448913574219 601.3480224609375 557.7919006347656 596.7767639160156 554.3097076416016C568.1146240234375 532.47607421875 331.85694885253906 331.9539337158203 320.7169189453125 322.49693298339844C314.6950378417969 317.3848419189453 314.0037078857422 310.76914978027344 314.0037078857422 308.00001525878906C314.0037078857422 297.50225830078125 322.5021209716797 289.0037384033203 332.99998474121094 289.0037384033203C337.37481689453125 289.0037384033203 341.74964904785156 290.50352478027344 345.2830505371094 293.5030975341797C582.0330963134766 494.4721374511719 617.3809051513672 522.2091979980469 620.2330322265625 524.3900299072266C626.0774078369141 527.6397705078125 629.9962615966797 533.8829498291016 629.9962615966797 541.0000152587891C629.9962615966797 550.6575012207031 622.1800842285156 560.0448913574219 611.2843322753906 560.0448913574219Z" />
  </g>
</svg>