<svg xmlns="http://www.w3.org/2000/svg" viewBox="93.50390625 -508.99609375 470.9921875 542.9921875" width="100%" height="100%">
  <g id="glyph-u1F5C3" transform="scale(1, -1)">
    <path d="M562.49609375 490C562.49609375 500.498046875 553.998046875 508.99609375 543.5 508.99609375H193.5C183.001953125 508.99609375 174.50390625 500.498046875 174.50390625 490.0C174.50390625 479.501953125 183.001953125 471.00390625 193.5 471.00390625H543.5C553.998046875 471.00390625 562.49609375 479.501953125 562.49609375 490.0ZM112.5 470.00390625C122.998046875 470.00390625 131.49609375 478.501953125 131.49609375 489.0C131.49609375 499.498046875 122.998046875 507.99609375 112.5 507.99609375C102.001953125 507.99609375 93.50390625 499.498046875 93.50390625 489.0C93.50390625 478.501953125 102.001953125 470.00390625 112.5 470.00390625ZM112.5 356.00390625C122.998046875 356.00390625 131.49609375 364.501953125 131.49609375 375.0C131.49609375 385.498046875 122.998046875 393.99609375 112.5 393.99609375C102.001953125 393.99609375 93.50390625 385.498046875 93.50390625 375.0C93.50390625 364.501953125 102.001953125 356.00390625 112.5 356.00390625ZM562.49609375 294.0C562.49609375 283.501953125 553.998046875 275.00390625 543.5 275.00390625H193.5C183.001953125 275.00390625 174.50390625 283.501953125 174.50390625 294.0V374.0C174.50390625 384.498046875 183.001953125 392.99609375 193.5 392.99609375C203.998046875 392.99609375 212.49609375 384.498046875 212.49609375 374.0V312.99609375H543.5C553.998046875 312.99609375 562.49609375 304.498046875 562.49609375 294.0ZM564.49609375 186.0C564.49609375 196.498046875 555.998046875 204.99609375 545.5 204.99609375H275.5C265.001953125 204.99609375 256.50390625 196.498046875 256.50390625 186.0C256.50390625 175.501953125 265.001953125 167.00390625 275.5 167.00390625H545.5C555.998046875 167.00390625 564.49609375 175.501953125 564.49609375 186.0ZM194.5 166.00390625C204.998046875 166.00390625 213.49609375 174.501953125 213.49609375 185.0C213.49609375 195.498046875 204.998046875 203.99609375 194.5 203.99609375C184.001953125 203.99609375 175.50390625 195.498046875 175.50390625 185.0C175.50390625 174.501953125 184.001953125 166.00390625 194.5 166.00390625ZM564.49609375 90.0C564.49609375 100.498046875 555.998046875 108.99609375 545.5 108.99609375H275.5C265.001953125 108.99609375 256.50390625 100.498046875 256.50390625 90.0C256.50390625 79.501953125 265.001953125 71.00390625 275.5 71.00390625H545.5C555.998046875 71.00390625 564.49609375 79.501953125 564.49609375 90.0ZM194.5 70.00390625C204.998046875 70.00390625 213.49609375 78.501953125 213.49609375 89.0C213.49609375 99.498046875 204.998046875 107.99609375 194.5 107.99609375C184.001953125 107.99609375 175.50390625 99.498046875 175.50390625 89.0C175.50390625 78.501953125 184.001953125 70.00390625 194.5 70.00390625ZM562.49609375 -14.0C562.49609375 -3.501953125 553.998046875 4.99609375 543.5 4.99609375H193.5C183.001953125 4.99609375 174.50390625 -3.501953125 174.50390625 -14.0C174.50390625 -24.498046875 183.001953125 -32.99609375 193.5 -32.99609375H543.5C553.998046875 -32.99609375 562.49609375 -24.498046875 562.49609375 -14.0ZM112.5 -33.99609375C122.998046875 -33.99609375 131.49609375 -25.498046875 131.49609375 -15.0C131.49609375 -4.501953125 122.998046875 3.99609375 112.5 3.99609375C102.001953125 3.99609375 93.50390625 -4.501953125 93.50390625 -15.0C93.50390625 -25.498046875 102.001953125 -33.99609375 112.5 -33.99609375Z" />
  </g>
</svg>