<svg xmlns="http://www.w3.org/2000/svg" viewBox="92.50390625 -436 478.9921875 435.99609375" width="100%" height="100%">
  <g id="glyph-u1F4E5" transform="scale(1, -1)">
    <path d="M255.5 238 314.5 123 315.5 122C315.5 121 316.5 121 316.5 120L317.5 119L318.5 118L321.5 115H322.5L324.5 114C325.5 114 326.5 113 327.5 113L328.5 112H329.5H331.5H333.5H335.5L336.5 113C337.5 113 338.5 114 339.5 114L341.5 115H342.5L345.5 118L346.5 119L347.5 120C347.5 121 348.5 121 348.5 122L349.5 123L408.5 238C409.5 241 410.5 244 410.5 247C410.5 258 402.5 266 391.5 266C384.5 266 377.5 262 374.5 256L350.5 210V417C350.5 428 342.5 436 331.5 436C320.5 436 312.5 428 312.5 417V210L288.5 256C285.5 262 278.5 266 271.5 266C260.5 266 252.5 258 252.5 247C252.5 244 253.5 241 254.5 238ZM111.5 139.99609375C101.001953125 139.99609375 92.50390625 131.498046875 92.50390625 121.0V19.0C92.50390625 8.501953125 101.001953125 0.00390625 111.5 0.00390625H552.5C562.998046875 0.00390625 571.49609375 8.501953125 571.49609375 19.0V121.0C571.49609375 131.498046875 562.998046875 139.99609375 552.5 139.99609375C542.001953125 139.99609375 533.50390625 131.498046875 533.50390625 121.0V37.99609375H130.49609375V121.0C130.49609375 131.498046875 121.998046875 139.99609375 111.5 139.99609375Z" />
  </g>
</svg>