<svg xmlns="http://www.w3.org/2000/svg" viewBox="121.00372314453125 -555.0 489.99627685546875 554.9962768554688" width="100%" height="100%">
  <g id="glyph-u1F4C4" transform="scale(1, -1)">
    <path d="M433.0068359375 188.55859375C434.9404296875 188.55859375 436.45703125 188.5654296875 437.6806640625 188.580078125C459.3076171875 188.849609375 460.01953125 205.1806640625 460.01953125 207.330078125C460.01953125 207.759765625 459.99609375 208.0 459.99609375 208.0C459.99609375 218.498046875 451.498046875 226.99609375 441.0 226.99609375C440.904296875 226.99609375 438.41015625 226.57421875 431.47265625 226.57421875C429.4375 226.57421875 348.9638671875 226.99609375 228.0 226.99609375C217.501953125 226.99609375 209.00390625 218.498046875 209.00390625 208.0C209.00390625 197.501953125 217.501953125 189.00390625 228.0 189.00390625C356.7333984375 189.00390625 430.9560546875 188.55859375 433.0068359375 188.55859375ZM611.0 419.0C611.0 430.0 603.0 439.0 592.0 439.0H495.0V536.0C495.0 547.0 487.0 555.0 476.0 555.0C465.0 555.0 456.0 547.0 456.0 536.0V439.0H359.0C348.0 439.0 340.0 430.0 340.0 419.0C340.0 408.0 348.0 400.0 359.0 400.0H456.0V303.0C456.0 292.0 465.0 284.0 476.0 284.0C487.0 284.0 495.0 292.0 495.0 303.0V400.0H592.0C603.0 400.0 611.0 408.0 611.0 419.0ZM322.88482666015625 479.0C322.88482666015625 489.4977569580078 314.38641357421875 497.99627685546875 303.88856506347656 497.99627685546875H140.0C129.5022430419922 497.99627685546875 121.00372314453125 489.49786376953125 121.00372314453125 479.0V19.0C121.00372314453125 8.502243041992188 129.50213623046875 0.00372314453125 140.0 0.00372314453125H520.0C530.4977569580078 0.00372314453125 538.9962768554688 8.50213623046875 538.9962768554688 19.0V218.0C538.9962768554688 228.4977569580078 530.4978637695312 236.99627685546875 520.0 236.99627685546875C509.5022430419922 236.99627685546875 501.00372314453125 228.49786376953125 501.00372314453125 218.0V37.99627685546875H158.99627685546875V460.00372314453125H303.88856506347656C314.3863220214844 460.00372314453125 322.8848419189453 468.50213623046875 322.8848419189453 479.0ZM433.00685119628906 88.55859375C434.94044494628906 88.55859375 436.45704650878906 88.5654296875 437.68067932128906 88.580078125C459.30763244628906 88.849609375 460.01954650878906 105.1806640625 460.01954650878906 107.330078125C460.01954650878906 107.759765625 459.99610900878906 108.0 459.99610900878906 108.0C459.99610900878906 118.498046875 451.49806213378906 126.99609375 441.00001525878906 126.99609375C440.90431213378906 126.99609375 438.41017150878906 126.57421875 431.47267150878906 126.57421875C429.43751525878906 126.57421875 348.96388244628906 126.99609375 228.00001525878906 126.99609375C217.50196838378906 126.99609375 209.00392150878906 118.498046875 209.00392150878906 108.0C209.00392150878906 97.501953125 217.50196838378906 89.00390625 228.00001525878906 89.00390625C356.73341369628906 89.00390625 430.95606994628906 88.55859375 433.00685119628906 88.55859375Z" />
  </g>
</svg>