<svg xmlns="http://www.w3.org/2000/svg" viewBox="65.81681157991837 -537.494873046875 532.3658056075816 576.5628254168762" width="100%" height="100%">
  <g id="glyph-u1F4CE" transform="scale(1, -1)">
    <path d="M282.2373046875 263.4541015625C229.16796875 210.384765625 229.16796875 210.384765625 228.75390625 203.119140625C223.2294921875 185.751953125 197.060546875 113.6943359375 197.060546875 113.6943359375C194.6123046875 106.958984375 196.125 99.14453125 201.4912109375 93.77734375C209.6591796875 85.609375 219.6806640625 88.728515625 221.32421875 89.3173828125L316.783203125 123.509765625C319.453125 124.466796875 321.8486328125 126.0048828125 323.814453125 127.970703125L588.9453125 393.1015625C596.3681640625 400.5244140625 596.3681640625 412.54296875 588.9453125 419.9658203125L476.984375 531.927734375C469.560546875 539.3505859375 457.5419921875 539.3505859375 450.119140625 531.927734375L73.123046875 154.2880859375C69.87890625 151.0380859375 67.8037109375 146.6201171875 67.5859375 141.7236328125C65.4775390625 94.2998046875 63.59765625 10.876953125 72.3095703125 -18.0576171875C73.2548828125 -23.474609375 76.2373046875 -27.1962890625 78.109375 -29.0673828125C83.8251953125 -34.783203125 92.8447265625 -35.90625 99.4775390625 -36.7314453125C130.365234375 -40.57421875 199.84375 -38.9892578125 254.705078125 -36.865234375C259.65234375 -36.673828125 264.1162109375 -34.5869140625 267.390625 -31.3115234375C473.771484375 173.4658203125 473.771484375 173.4658203125 509.62109375 209.31640625C530.951171875 230.6455078125 549.865234375 249.6396484375 564.2685546875 264.2373046875C598.1826171875 298.609375 598.1826171875 298.623046875 598.1826171875 307.3154296875C598.1826171875 310.3466796875 597.359375 316.017578125 592.607421875 320.76953125C585.1845703125 328.1923828125 573.166015625 328.1923828125 565.7431640625 320.76953125C564.908203125 319.9345703125 574.939453125 328.3681640625 483.0244140625 236.453125C397.982421875 151.4111328125 273.837890625 28.5263671875 246.2041015625 1.17578125C246.0859375 1.056640625 245.9677734375 0.9423828125 245.853515625 0.828125C165.5048828125 -2.13671875 126.203125 -1.1416015625 107.330078125 0.6630859375C102.42578125 33.7099609375 103.568359375 92.1083984375 105.234375 132.6787109375L463.5634765625 491.619140625L548.6484375 406.5341796875L299.9755859375 157.861328125L246.4892578125 138.703125C256.6630859375 167.087890625 262.8779296875 184.912109375 265.1748046875 192.2353515625C270.890625 198.2373046875 286.0068359375 213.4931640625 308.919921875 236.4052734375C363.7685546875 291.25390625 446.8642578125 373.55078125 446.8642578125 373.55078125C454.46875 381.154296875 454.2646484375 393.1474609375 446.9306640625 400.4814453125C439.5322265625 407.8798828125 427.564453125 407.908203125 420.1318359375 400.546875C338.302734375 319.5087890625 283.6123046875 264.8291015625 282.2373046875 263.4541015625Z" />
  </g>
</svg>