<svg xmlns="http://www.w3.org/2000/svg" viewBox="60.9375 -504.4775390625 1669.125 504.6923828125" width="100%" height="100%">
  <g id="glyph-u1F4C0" transform="scale(1, -1)">
    <path d="M702.9521484375 470.318359375C702.9521484375 474.484375 699.5712890625 477.865234375 695.4052734375 477.865234375C691.240234375 477.865234375 687.859375 474.484375 687.859375 470.318359375V372.5712890625H545.6044921875V470.318359375C545.6044921875 474.484375 542.2236328125 477.865234375 538.05859375 477.865234375C533.892578125 477.865234375 530.51171875 474.484375 530.51171875 470.318359375V259.912109375C530.51171875 255.74609375 533.892578125 252.365234375 538.05859375 252.365234375C542.2236328125 252.365234375 545.6044921875 255.74609375 545.6044921875 259.912109375V357.4765625H687.859375V259.912109375C687.859375 255.74609375 691.240234375 252.365234375 695.4052734375 252.365234375C699.5712890625 252.365234375 702.9521484375 255.74609375 702.9521484375 259.912109375ZM908.0810546875 262.455078125 829.6455078125 472.953125C828.578125 475.8212890625 825.8203125 477.8642578125 822.58203125 477.865234375H822.533203125C819.3017578125 477.865234375 816.5458984375 475.8310546875 815.474609375 472.970703125L736.58984375 262.47265625C736.283203125 261.650390625 736.1162109375 260.759765625 736.1162109375 259.8310546875C736.1162109375 256.5927734375 738.1474609375 253.828125 741.0087890625 252.7490234375C741.8349609375 252.4443359375 742.7314453125 252.2763671875 743.6630859375 252.2724609375C746.8974609375 252.2724609375 749.6572265625 254.306640625 750.7333984375 257.16796875L788.3408203125 357.4853515625L856.5400390625 357.55859375L893.9375 257.1845703125C894.978515625 254.2607421875 897.7724609375 252.1640625 901.0517578125 252.1640625C905.216796875 252.1640625 908.5986328125 255.546875 908.5986328125 259.712890625C908.5986328125 260.677734375 908.412109375 261.607421875 908.0810546875 262.455078125ZM793.9951171875 372.5791015625 822.5556640625 448.7294921875 850.9150390625 372.6162109375ZM1105.9365234375 252.2724609375C1110.0986328125 252.2763671875 1113.4736328125 255.6630859375 1113.4736328125 259.826171875C1113.4736328125 261.517578125 1112.9150390625 263.0791015625 1111.974609375 264.3388671875L1041.8076171875 358.162109375C1061.5126953125 360.064453125 1078.318359375 365.9384765625 1090.9609375 375.42578125C1105.4140625 386.265625 1113.703125 401.6435546875 1113.703125 417.625C1113.703125 433.607421875 1105.4140625 448.9853515625 1090.9609375 459.8251953125C1075.298828125 471.5712890625 1053.2705078125 477.7744140625 1027.25390625 477.7744140625H948.5791015625C944.4140625 477.7744140625 941.0322265625 474.392578125 941.0322265625 470.2265625V259.8193359375C941.0322265625 255.6552734375 944.4140625 252.2724609375 948.5791015625 252.2724609375C952.7451171875 252.2724609375 956.1279296875 255.6552734375 956.1279296875 259.8193359375V462.6796875H1027.25390625C1076.2783203125 462.6796875 1098.609375 439.3251953125 1098.609375 417.625C1098.609375 395.92578125 1076.2783203125 372.5712890625 1027.25390625 372.5712890625L1027.255859375 372.564453125C1023.08984375 372.564453125 1019.70703125 369.1826171875 1019.70703125 365.0166015625C1019.70703125 363.326171875 1020.265625 361.7626953125 1021.20703125 360.50390625L1099.8798828125 255.30078125C1101.2529296875 253.4599609375 1103.443359375 252.2724609375 1105.916015625 252.2724609375ZM1318.8310546875 262.455078125 1240.3955078125 472.953125C1239.3310546875 475.8212890625 1236.5703125 477.8642578125 1233.3330078125 477.865234375C1230.1015625 477.8642578125 1227.3447265625 475.8310546875 1226.271484375 472.970703125L1147.359375 262.47265625C1147.0498046875 261.6484375 1146.880859375 260.755859375 1146.880859375 259.822265625C1146.880859375 256.587890625 1148.91015625 253.826171875 1151.76953125 252.7490234375C1152.595703125 252.4443359375 1153.4912109375 252.2763671875 1154.4208984375 252.2724609375H1154.423828125C1157.6552734375 252.2724609375 1160.412109375 254.306640625 1161.4833984375 257.16796875C1161.4873046875 257.1708984375 1199.091796875 357.4853515625 1199.091796875 357.4853515625L1267.2998046875 357.55859375L1304.6982421875 257.1845703125C1305.794921875 254.37109375 1308.5322265625 252.375 1311.7314453125 252.375C1315.8974609375 252.375 1319.2802734375 255.7568359375 1319.2802734375 259.9208984375C1319.2802734375 260.8076171875 1319.12109375 261.6640625 1318.8408203125 262.455078125C1318.845703125 262.44921875 1318.8310546875 262.455078125 1318.8310546875 262.455078125ZM1204.74609375 372.5791015625 1233.3056640625 448.7294921875 1261.6650390625 372.6162109375ZM1516.953125 252.365234375C1521.1181640625 252.365234375 1524.4990234375 255.74609375 1524.4990234375 259.912109375C1524.4990234375 264.0771484375 1521.1181640625 267.458984375 1516.953125 267.458984375H1367.517578125V470.318359375C1367.517578125 474.484375 1364.1357421875 477.865234375 1359.9716796875 477.865234375C1355.8056640625 477.865234375 1352.4228515625 474.484375 1352.4228515625 470.318359375V259.912109375C1352.4228515625 255.74609375 1355.8056640625 252.365234375 1359.9716796875 252.365234375ZM1565.3916015625 252.365234375C1615.5791015625 252.365234375 1657.896484375 264.2578125 1687.7744140625 286.7607421875C1715.0361328125 307.2998046875 1730.0576171875 335.126953125 1730.0576171875 365.115234375C1730.0576171875 395.103515625 1715.0361328125 422.9306640625 1687.7744140625 443.46875C1657.896484375 465.97265625 1615.5791015625 477.865234375 1565.3916015625 477.865234375C1561.2255859375 477.865234375 1557.8447265625 474.484375 1557.8447265625 470.318359375V259.912109375C1557.8447265625 255.74609375 1561.2255859375 252.365234375 1565.3916015625 252.365234375ZM1572.939453125 462.6796875C1616.484375 461.537109375 1652.9306640625 450.814453125 1678.6904296875 431.412109375C1702.083984375 413.7919921875 1714.962890625 390.2451171875 1714.962890625 365.115234375C1714.962890625 339.9853515625 1702.083984375 316.4384765625 1678.6904296875 298.818359375C1652.9306640625 279.443359375 1616.484375 268.6572265625 1572.939453125 267.55078125ZM695.185546875 -0.21484375C699.3486328125 -0.2119140625 702.7236328125 3.17578125 702.7236328125 7.337890625C702.7236328125 9.0302734375 702.1640625 10.591796875 701.2236328125 11.8505859375L631.0576171875 105.6748046875C650.80859375 107.5771484375 667.568359375 113.4501953125 680.2099609375 122.9365234375C694.6640625 133.77734375 702.9521484375 149.154296875 702.9521484375 165.1376953125C702.9521484375 181.119140625 694.6640625 196.49609375 680.2099609375 207.337890625C664.548828125 219.083984375 642.51953125 225.28515625 616.50390625 225.28515625H537.8291015625C533.6630859375 225.28515625 530.2822265625 221.904296875 530.2822265625 217.73828125V7.33203125C530.2822265625 3.166015625 533.6630859375 -0.21484375 537.8291015625 -0.21484375C541.9951171875 -0.21484375 545.3759765625 3.166015625 545.3759765625 7.33203125V210.1923828125H616.50390625C665.52734375 210.1923828125 687.859375 186.8369140625 687.859375 165.1376953125C687.859375 143.4384765625 665.52734375 120.08203125 616.50390625 120.08203125L616.5048828125 120.0751953125C612.33984375 120.0751953125 608.95703125 116.6943359375 608.95703125 112.529296875C608.95703125 110.8369140625 609.515625 109.275390625 610.4560546875 108.0166015625L689.12890625 2.8125C690.5029296875 0.970703125 692.693359375 -0.21484375 695.1650390625 -0.21484375ZM900.6435546875 -0.1240234375C904.8095703125 -0.1240234375 908.1904296875 3.2587890625 908.1904296875 7.423828125C908.1904296875 11.587890625 904.8095703125 14.970703125 900.6435546875 14.970703125H743.296875C739.130859375 14.970703125 735.748046875 11.587890625 735.748046875 7.423828125C735.748046875 3.2587890625 739.130859375 -0.1240234375 743.296875 -0.1240234375ZM900.6435546875 210.283203125C904.8095703125 210.283203125 908.1904296875 213.6650390625 908.1904296875 217.8310546875C908.1904296875 221.9951171875 904.8095703125 225.3779296875 900.6435546875 225.3779296875H743.296875C739.130859375 225.3779296875 735.748046875 221.9951171875 735.748046875 217.8310546875C735.748046875 213.6650390625 739.130859375 210.283203125 743.296875 210.283203125ZM879.603515625 105.0791015625C883.767578125 105.0791015625 887.150390625 108.4619140625 887.150390625 112.6279296875C887.150390625 116.7919921875 883.767578125 120.1748046875 879.603515625 120.1748046875H764.3369140625C760.1708984375 120.1748046875 756.7900390625 116.7919921875 756.7900390625 112.6279296875C756.7900390625 108.4619140625 760.1708984375 105.0791015625 764.3369140625 105.0791015625ZM1027.2080078125 -0.1240234375C1030.4443359375 -0.1220703125 1033.2060546875 1.9150390625 1034.2783203125 4.7802734375C1034.2783203125 4.7802734375 1112.9580078125 215.193359375 1112.953125 215.1875C1113.2607421875 216.0087890625 1113.43359375 216.904296875 1113.43359375 217.833984375C1113.43359375 222.0 1110.05078125 225.3828125 1105.8837890625 225.3828125C1102.646484375 225.3828125 1099.880859375 223.33984375 1098.8095703125 220.4736328125L1027.2080078125 28.9775390625L955.60546875 220.4736328125C954.5341796875 223.33984375 951.7744140625 225.3759765625 948.5361328125 225.3759765625C944.37109375 225.3759765625 940.986328125 221.9931640625 940.986328125 217.826171875C940.986328125 216.8984375 941.1552734375 216.0087890625 941.462890625 215.1875L1020.13671875 4.7802734375C1021.2099609375 1.9150390625 1023.9716796875 -0.1220703125 1027.2080078125 -0.1240234375ZM1311.5771484375 -0.1240234375C1315.7412109375 -0.1240234375 1319.1240234375 3.2587890625 1319.1240234375 7.423828125C1319.1240234375 11.587890625 1315.7412109375 14.970703125 1311.5771484375 14.970703125H1154.23046875C1150.064453125 14.970703125 1146.681640625 11.587890625 1146.681640625 7.423828125C1146.681640625 3.2587890625 1150.064453125 -0.1240234375 1154.23046875 -0.1240234375ZM1311.5771484375 210.283203125C1315.7412109375 210.283203125 1319.1240234375 213.6650390625 1319.1240234375 217.8310546875C1319.1240234375 221.9951171875 1315.7412109375 225.3779296875 1311.5771484375 225.3779296875H1154.23046875C1150.064453125 225.3779296875 1146.681640625 221.9951171875 1146.681640625 217.8310546875C1146.681640625 213.6650390625 1150.064453125 210.283203125 1154.23046875 210.283203125ZM1290.537109375 105.0791015625C1294.701171875 105.0791015625 1298.083984375 108.4619140625 1298.083984375 112.6279296875C1298.083984375 116.7919921875 1294.701171875 120.1748046875 1290.537109375 120.1748046875H1175.2705078125C1171.1044921875 120.1748046875 1167.7236328125 116.7919921875 1167.7236328125 112.6279296875C1167.7236328125 108.4619140625 1171.1044921875 105.0791015625 1175.2705078125 105.0791015625ZM1517.2998046875 -0.21484375C1517.3046875 -0.21484375 1517.3046875 -0.208984375 1517.3076171875 -0.208984375C1521.46875 -0.208984375 1524.8466796875 3.1689453125 1524.8466796875 7.3291015625C1524.8466796875 9.025390625 1524.2841796875 10.591796875 1523.337890625 11.8505859375L1453.1806640625 105.6748046875C1472.8857421875 107.5771484375 1489.681640625 113.4501953125 1502.32421875 122.9365234375C1516.779296875 133.77734375 1525.06640625 149.154296875 1525.06640625 165.1376953125C1525.06640625 181.119140625 1516.779296875 196.49609375 1502.32421875 207.337890625C1486.671875 219.083984375 1464.6435546875 225.28515625 1438.6171875 225.28515625H1359.9423828125C1355.77734375 225.28515625 1352.3955078125 221.904296875 1352.3955078125 217.73828125V7.33203125C1352.3955078125 3.166015625 1355.77734375 -0.21484375 1359.9423828125 -0.21484375C1364.1083984375 -0.21484375 1367.4912109375 3.166015625 1367.4912109375 7.33203125V210.1923828125H1438.6171875C1487.6513671875 210.1923828125 1509.97265625 186.8369140625 1509.97265625 165.1376953125C1509.97265625 143.4384765625 1487.6513671875 120.08203125 1438.6171875 120.08203125C1434.455078125 120.0791015625 1431.080078125 116.69140625 1431.080078125 112.529296875C1431.080078125 110.8369140625 1431.6376953125 109.275390625 1432.5791015625 108.0166015625L1511.2529296875 2.8125C1512.625 0.97265625 1514.8134765625 -0.21484375 1517.2841796875 -0.21484375ZM1728.556640625 213.2197265625C1729.4990234375 214.478515625 1730.0625 216.052734375 1730.0625 217.7451171875C1730.0625 221.912109375 1726.6796875 225.294921875 1722.5146484375 225.294921875C1720.0390625 225.294921875 1717.8408203125 224.1015625 1716.4638671875 222.2578125L1643.8369140625 125.142578125C1643.8369140625 125.142578125 1571.216796875 222.2451171875 1571.208984375 222.2578125C1569.83203125 224.1015625 1567.6416015625 225.2822265625 1565.1669921875 225.2822265625C1560.9990234375 225.2822265625 1557.6171875 221.8984375 1557.6171875 217.732421875C1557.6171875 216.0400390625 1558.17578125 214.478515625 1559.1162109375 213.2197265625L1636.2900390625 110.0205078125V7.33203125C1636.2900390625 3.166015625 1639.6708984375 -0.21484375 1643.8369140625 -0.21484375C1648.001953125 -0.21484375 1651.3828125 3.166015625 1651.3828125 7.33203125V110.0283203125ZM241.3759765625 155.4306640625C241.3759765625 155.4306640625 241.765625 155.07421875 241.3759765625 155.4677734375C216.82421875 173.0458984375 195.7958984375 194.3330078125 178.5185546875 219.111328125C148.9482421875 261.474609375 131.451171875 313.2294921875 131.451171875 368.76171875V369.2412109375C131.451171875 369.263671875 131.443359375 369.0185546875 131.443359375 369.041015625C131.443359375 382.2568359375 132.412109375 395.248046875 134.2880859375 407.9453125C139.39453125 442.6279296875 151.515625 475.63671875 168.8857421875 504.4775390625C122.966796875 487.0625 84.9580078125 454.2861328125 60.9375 412.0810546875C67.8623046875 296.74609375 140.1357421875 198.8603515625 241.3759765625 155.4306640625ZM276.193359375 151.478515625C231.056640625 195.421875 203.0341796875 256.8935546875 203.0341796875 324.8017578125C203.0341796875 390.671875 229.42578125 450.42578125 272.2041015625 494.0576171875C225.9384765625 488.12109375 184.5390625 465.9794921875 154.3125 433.44140625C148.9287109375 413.1220703125 145.7744140625 392.0185546875 145.7744140625 370.0146484375C145.7744140625 275.6279296875 198.55859375 193.4697265625 276.193359375 151.478515625ZM194.9208984375 161.91796875C169.4873046875 177.4794921875 146.7880859375 196.22265625 126.7685546875 218.1142578125V-0.205078125H194.9208984375ZM485.318359375 477.7919921875 426.0576171875 477.8017578125V278.3720703125C426.0576171875 278.3720703125 223.6240234375 277.9814453125 223.490234375 278.3720703125C227.8681640625 257.544921875 235.26953125 237.3828125 244.9892578125 219.111328125H426.0576171875V-0.205078125H485.318359375Z" />
  </g>
</svg>