<svg xmlns="http://www.w3.org/2000/svg" viewBox="47.00390625 -454.99609375 591.9921875 435.9921875" width="100%" height="100%">
  <g id="glyph-u1F39E" transform="scale(1, -1)">
    <path d="M540.7099609375 306.4560546875V164.99609375H368.1728515625V306.4560546875ZM601.00390625 417.00390625V56.99609375H84.99609375V417.00390625ZM47.00390625 436.0V38.0C47.00390625 27.501953125 55.501953125 19.00390625 66.0 19.00390625H620.0C630.498046875 19.00390625 638.99609375 27.501953125 638.99609375 38.0V436.0C638.99609375 446.498046875 630.498046875 454.99609375 620.0 454.99609375H66.0C55.501953125 454.99609375 47.00390625 446.498046875 47.00390625 436.0ZM229.73828125 382.0C229.73828125 392.498046875 221.240234375 400.99609375 210.7421875 400.99609375H129.0C118.501953125 400.99609375 110.00390625 392.498046875 110.00390625 382.0C110.00390625 371.501953125 118.501953125 363.00390625 129.0 363.00390625H210.7421875C221.240234375 363.00390625 229.73828125 371.501953125 229.73828125 382.0ZM399.73828125 382.0C399.73828125 392.498046875 391.240234375 400.99609375 380.7421875 400.99609375H299.0C288.501953125 400.99609375 280.00390625 392.498046875 280.00390625 382.0C280.00390625 371.501953125 288.501953125 363.00390625 299.0 363.00390625H380.7421875C391.240234375 363.00390625 399.73828125 371.501953125 399.73828125 382.0ZM569.73828125 382.0C569.73828125 392.498046875 561.240234375 400.99609375 550.7421875 400.99609375H469.0C458.501953125 400.99609375 450.00390625 392.498046875 450.00390625 382.0C450.00390625 371.501953125 458.501953125 363.00390625 469.0 363.00390625H550.7421875C561.240234375 363.00390625 569.73828125 371.501953125 569.73828125 382.0ZM229.73828125 92.0C229.73828125 102.498046875 221.240234375 110.99609375 210.7421875 110.99609375H129.0C118.501953125 110.99609375 110.00390625 102.498046875 110.00390625 92.0C110.00390625 81.501953125 118.501953125 73.00390625 129.0 73.00390625H210.7421875C221.240234375 73.00390625 229.73828125 81.501953125 229.73828125 92.0ZM399.73828125 92.0C399.73828125 102.498046875 391.240234375 110.99609375 380.7421875 110.99609375H299.0C288.501953125 110.99609375 280.00390625 102.498046875 280.00390625 92.0C280.00390625 81.501953125 288.501953125 73.00390625 299.0 73.00390625H380.7421875C391.240234375 73.00390625 399.73828125 81.501953125 399.73828125 92.0ZM569.73828125 92.0C569.73828125 102.498046875 561.240234375 110.99609375 550.7421875 110.99609375H469.0C458.501953125 110.99609375 450.00390625 102.498046875 450.00390625 92.0C450.00390625 81.501953125 458.501953125 73.00390625 469.0 73.00390625H550.7421875C561.240234375 73.00390625 569.73828125 81.501953125 569.73828125 92.0ZM320.7099609375 306.4560546875V164.99609375H148.1728515625V306.4560546875ZM110.1806640625 325.4521484375V146.0C110.1806640625 135.501953125 118.6787109375 127.00390625 129.1767578125 127.00390625H557.7060546875C568.2041015625 127.00390625 576.7021484375 135.501953125 576.7021484375 146.0V325.4521484375C576.7021484375 335.9501953125 568.2041015625 344.4482421875 557.7060546875 344.4482421875H129.1767578125C118.6787109375 344.4482421875 110.1806640625 335.9501953125 110.1806640625 325.4521484375Z" />
  </g>
</svg>