<svg xmlns="http://www.w3.org/2000/svg" viewBox="0 -800 612.198 1000" width="612.198" height="1000">
  <g transform="scale(1 -1)">
    <path d="M 558.876 39.258 L 306.147 513.475 L 53.418 39.258 L 558.876 39.258 Z M 2.625 28.999 L 288.302 565.041 C 291.603 571.544 298.355 576 306.147 576 C 313.939 576 320.691 571.544 323.992 565.041 L 609.669 28.999 C 611.28 26.117 612.198 22.794 612.198 19.258 C 612.198 8.212 603.244 -0.742 592.198 -0.742 L 20.096 -0.742 C 9.05 -0.742 0.096 8.212 0.096 19.258 C 0.096 22.794 1.014 26.117 2.625 28.999 Z M 306.147 83.015 C 292.13 83.015 280.766 94.379 280.766 108.396 C 280.766 122.413 292.13 133.777 306.147 133.777 C 320.164 133.777 331.528 122.413 331.528 108.396 C 331.528 94.379 320.164 83.015 306.147 83.015 Z" fill-rule="nonzero" fill="#000000" />
    <path d="M 326.147 197 C 326.147 185.954 317.193 177 306.147 177 C 295.101 177 286.147 185.954 286.147 197 L 286.147 378 C 286.147 389.046 295.101 398 306.147 398 C 317.193 398 326.147 389.046 326.147 378 L 326.147 197 Z" fill-rule="nonzero" fill="#000000" />
  </g>
</svg>
